<svg xmlns="http://www.w3.org/2000/svg" width="1024" height="1024" viewBox="0 0 1024 1024" role="img" aria-label="Mosaic logo">
  <rect x="81.92" y="81.92" width="189.24" height="189.24" rx="15.14" ry="15.14" fill="#fb923c"/>
  <rect x="305.56" y="81.92" width="189.24" height="189.24" rx="15.14" ry="15.14" fill="#fb923c"/>
  <rect x="529.20" y="81.92" width="189.24" height="189.24" rx="15.14" ry="15.14" fill="#f97316"/>
  <rect x="752.84" y="81.92" width="189.24" height="189.24" rx="15.14" ry="15.14" fill="#f97316"/>
  <rect x="81.92" y="305.56" width="189.24" height="189.24" rx="15.14" ry="15.14" fill="#fb923c"/>
  <rect x="305.56" y="305.56" width="189.24" height="189.24" rx="15.14" ry="15.14" fill="#f97316"/>
  <rect x="529.20" y="305.56" width="189.24" height="189.24" rx="15.14" ry="15.14" fill="#f97316"/>
  <rect x="752.84" y="305.56" width="189.24" height="189.24" rx="15.14" ry="15.14" fill="#ea580c"/>
  <rect x="81.92" y="529.20" width="189.24" height="189.24" rx="15.14" ry="15.14" fill="#fb923c"/>
  <rect x="305.56" y="529.20" width="189.24" height="189.24" rx="15.14" ry="15.14" fill="#f97316"/>
  <rect x="529.20" y="529.20" width="189.24" height="189.24" rx="15.14" ry="15.14" fill="#f97316"/>
  <rect x="752.84" y="529.20" width="189.24" height="189.24" rx="15.14" ry="15.14" fill="#ea580c"/>
  <rect x="81.92" y="752.84" width="189.24" height="189.24" rx="15.14" ry="15.14" fill="#f97316"/>
  <rect x="305.56" y="752.84" width="189.24" height="189.24" rx="15.14" ry="15.14" fill="#f97316"/>
  <rect x="529.20" y="752.84" width="189.24" height="189.24" rx="15.14" ry="15.14" fill="#ea580c"/>
  <rect x="752.84" y="752.84" width="189.24" height="189.24" rx="15.14" ry="15.14" fill="#ea580c"/>
</svg>